<svg id="visual" viewBox="0 0 900 600" width="900" height="600" xmlns="http://www.w3.org/2000/svg" xmlns:xlink="http://www.w3.org/1999/xlink" version="1.1"><path d="M0 67L113 61L225 85L338 61L450 91L563 97L675 55L788 55L900 91L900 0L788 0L675 0L563 0L450 0L338 0L225 0L113 0L0 0Z" fill="#0066ff"></path><path d="M0 235L113 217L225 205L338 181L450 247L563 247L675 187L788 259L900 223L900 89L788 53L675 53L563 95L450 89L338 59L225 83L113 59L0 65Z" fill="#0078ff"></path><path d="M0 295L113 283L225 277L338 253L450 295L563 301L675 259L788 331L900 295L900 221L788 257L675 185L563 245L450 245L338 179L225 203L113 215L0 233Z" fill="#1e89fe"></path><path d="M0 421L113 409L225 385L338 343L450 415L563 379L675 385L788 439L900 361L900 293L788 329L675 257L563 299L450 293L338 251L225 275L113 281L0 293Z" fill="#4099fa"></path><path d="M0 535L113 535L225 553L338 529L450 553L563 541L675 535L788 559L900 523L900 359L788 437L675 383L563 377L450 413L338 341L225 383L113 407L0 419Z" fill="#5fa7f4"></path><path d="M0 601L113 601L225 601L338 601L450 601L563 601L675 601L788 601L900 601L900 521L788 557L675 533L563 539L450 551L338 527L225 551L113 533L0 533Z" fill="#7cb5ee"></path></svg>